<svg width="171" height="140" viewBox="0 0 171 140" fill="none" xmlns="http://www.w3.org/2000/svg">
<g id="Group 84">
<path id="Vector" d="M138.846 80.9279C138.846 97.3938 125.495 110.745 109.03 110.745C104.935 110.745 101.019 109.943 97.459 108.43V53.4255C101.019 51.9124 104.935 51.1113 109.03 51.1113C125.495 51.1113 138.846 64.462 138.846 80.9279Z" stroke="#4BDFFF" stroke-miterlimit="10"/>
<path id="Vector_2" d="M131.727 100.953L167.329 136.555" stroke="#4BDFFF" stroke-miterlimit="10"/>
<path id="Vector_3" d="M140.629 109.854L167.33 136.555" stroke="#4BDFFF" stroke-width="8" stroke-miterlimit="10"/>
<path id="Vector_4" d="M97.4608 53.4238V108.429C86.7803 103.89 79.2148 93.298 79.2148 80.9263C79.2148 68.5546 86.7803 57.9631 97.4608 53.4238Z" stroke="#4BDFFF" stroke-miterlimit="10"/>
<path id="Vector_5" d="M97.4608 53.4238V108.429C86.7803 103.89 79.2148 93.298 79.2148 80.9263C79.2148 68.5546 86.7803 57.9631 97.4608 53.4238Z" fill="#4BDFFF"/>
<path id="Vector_6" d="M79.2144 80.9272C79.2144 93.2989 86.7798 103.89 97.4604 108.43V137H72.5391V31.9746H97.4604V53.4248C86.7798 57.964 79.2144 68.5556 79.2144 80.9272Z" stroke="#4BDFFF" stroke-miterlimit="10"/>
<path id="Vector_7" d="M62.3042 60.4561H37.3828V137H62.3042V60.4561Z" stroke="#4BDFFF" stroke-miterlimit="10"/>
<path id="Vector_8" d="M27.146 88.9365H2.22461V136.999H27.146V88.9365Z" stroke="#4BDFFF" stroke-miterlimit="10"/>
<path id="Vector_9" d="M0 76.0314H21.3611V45.7698H60.5233V19.9584H97.0152V1.2674" stroke="#4BDFFF" stroke-miterlimit="10"/>
<path id="Vector_10" d="M86.5117 9.01043L97.1923 1L106.983 9.01043" stroke="#4BDFFF" stroke-miterlimit="10"/>
</g>
</svg>
