<svg width="182" height="177" viewBox="0 0 182 177" fill="none" xmlns="http://www.w3.org/2000/svg">
<g id="Group 89">
<g id="Group 85">
<path id="Vector" d="M39.9011 84L141.701 84.8C141.701 84.8 153.401 154.9 90.0011 175.8C90.0011 175.8 25.7011 158.3 39.9011 84Z" stroke="#4BDFFF" stroke-miterlimit="10"/>
<path id="Vector_2" d="M38.4998 72.2L142 73.1L149.5 38L113.1 50.5L91.3998 18L68.3998 50.9L30.9998 37.2L38.4998 72.2Z" stroke="#4BDFFF" stroke-miterlimit="10"/>
<g id="Group">
<path id="Vector_3" d="M70.8005 115.499V132.399C70.8005 141.999 78.6005 149.799 88.2005 149.799H92.1005C101.701 149.799 109.501 141.999 109.501 132.399V115.499H70.8005ZM91.4005 132.799L92.7005 139.199H87.9005L89.2005 132.799C87.3005 132.299 85.8005 130.599 85.8005 128.499C85.8005 125.999 87.8005 123.999 90.3005 123.999C92.8005 123.999 94.8005 125.999 94.8005 128.499C94.7005 130.499 93.3005 132.299 91.4005 132.799Z" fill="#4BDFFF"/>
<path id="Vector_4" d="M103.7 115.499V107.899C103.7 101.699 97.7001 96.6992 90.3001 96.6992C82.9001 96.6992 76.9001 101.699 76.9001 107.899V115.499" stroke="#4BDFFF" stroke-miterlimit="10"/>
</g>
</g>
<path id="Vector 25" d="M134 1L125 20" stroke="#4BDFFF"/>
<path id="Vector 27" d="M181.735 70.3518L161.219 74.943" stroke="#4BDFFF"/>
<path id="Vector 28" d="M0.998917 70.3518L21.5153 74.943" stroke="#4BDFFF"/>
<path id="Vector 26" d="M45.9998 1L54.9998 20" stroke="#4BDFFF"/>
<circle id="Ellipse 13" cx="90.9998" cy="17" r="3" fill="#4BDFFF"/>
<circle id="Ellipse 14" cx="150" cy="37" r="3" fill="#4BDFFF"/>
<circle id="Ellipse 15" cx="30.9998" cy="37" r="3" fill="#4BDFFF"/>
</g>
</svg>
