<svg width="124" height="142" viewBox="0 0 124 142" fill="none" xmlns="http://www.w3.org/2000/svg">
<path d="M82.7446 35.2276C81.6409 34.9591 80.6566 34.7802 79.6722 34.5117C75.4366 33.4379 71.4694 31.7376 68.2479 28.6951C65.9511 26.5475 64.5491 23.9225 64.042 20.7905C63.5648 17.7182 63.8034 14.7055 65.086 11.842C66.1002 9.57498 67.7408 7.78527 69.6498 6.26401C72.1554 4.26549 75.019 2.98286 78.0615 2.05817C83.0429 0.536916 88.1435 0 93.3039 0C103.058 0 112.782 0 122.536 0C122.745 0 122.983 0 123.311 0C123.162 0.268458 123.103 0.447429 123.013 0.596572C120.925 3.43029 118.837 6.23418 116.779 9.0679C116.451 9.51533 116.093 9.66447 115.556 9.66447C111.917 9.63464 108.278 9.60481 104.639 9.60481C101.626 9.60481 98.6432 9.54516 95.6305 9.63464C93.4232 9.6943 91.2159 9.78378 89.0384 10.0522C86.503 10.3804 84.0869 11.0962 81.9094 12.528C78.4492 14.795 78.1211 18.7622 79.7617 21.7152C80.5969 23.2067 81.9392 24.191 83.4306 24.9367C85.3397 25.8912 87.368 26.3685 89.456 26.6668C93.7513 27.2633 98.0466 27.144 102.342 27.144C102.61 27.144 102.879 27.144 103.326 27.144C103.118 27.5318 102.998 27.7704 102.849 28.0091C100.88 30.6936 98.9117 33.3484 96.943 36.033C93.9005 40.1791 90.8281 44.3253 87.7856 48.4715C83.4903 54.3179 79.1651 60.1345 74.8698 65.9809C70.8429 71.4694 66.8459 76.9578 62.8191 82.4165C62.4611 82.9235 62.0733 83.4008 61.6259 84.0272C47.6959 65.0264 33.8256 46.1449 19.836 27.144C20.2536 27.1142 20.4923 27.0545 20.7309 27.0545C22.0732 27.0545 23.4453 27.0844 24.7876 27.0545C27.2633 26.9949 29.7391 26.9949 32.2149 26.7861C35.1083 26.5475 37.942 26.0105 40.4774 24.5191C41.9092 23.6839 43.162 22.6399 43.8182 21.0888C45.071 18.106 44.6236 14.6757 41.4618 12.5578C39.5527 11.2752 37.4647 10.5892 35.2276 10.2014C32.3939 9.6943 29.5303 9.63464 26.6668 9.60481C22.9084 9.57498 19.15 9.60481 15.3916 9.60481C12.8263 9.60481 10.261 9.63464 7.69578 9.66447C7.15886 9.66447 6.80092 9.4855 6.50264 9.03807C4.47429 6.26401 2.44594 3.48995 0.417599 0.745715C0.298284 0.566744 0.178972 0.387772 0 0.0894856C0.298286 0.059657 0.507085 0.0298282 0.686057 0.0298282C10.9173 0.0298282 21.1187 0.0298288 31.3499 0.0596574C34.1836 0.0596574 37.0173 0.387772 39.8212 0.86503C42.7444 1.34229 45.5781 2.088 48.3224 3.25132C51.5737 4.62344 54.467 6.53247 56.6445 9.33636C57.8377 10.8874 58.643 12.5877 59.0905 14.4967C59.5976 16.704 59.6572 18.9113 59.2396 21.1187C58.7325 23.9225 57.4499 26.3685 55.4216 28.4267C53.1546 30.6936 50.47 32.2447 47.517 33.3782C45.5185 34.1538 43.4901 34.7205 41.3723 35.0784C41.1635 35.1083 40.9547 35.2276 40.5967 35.3469C47.6363 44.5938 54.6162 53.8108 61.6856 63.0875C68.6953 53.7213 75.6752 44.5341 82.7446 35.2276Z" fill="white"/>
<path d="M84.0288 117.286C85.222 115.645 86.3554 114.124 87.4889 112.603C87.9364 112.006 88.354 111.38 88.8312 110.783C89.1892 110.365 89.1295 110.037 88.8312 109.62C87.6381 107.979 86.4747 106.309 85.3114 104.638C85.1325 104.4 84.9535 104.161 84.8342 103.893C84.4762 103.207 84.8044 102.64 85.5799 102.61C86.2063 102.58 86.8625 102.61 87.5188 102.61C88.3838 102.61 89.2488 102.64 90.1437 102.61C90.9192 102.58 91.4561 102.878 91.8737 103.505C93.4248 105.742 94.9759 107.979 96.527 110.216C98.0184 112.364 99.5397 114.541 101.031 116.689C101.15 116.838 101.27 116.987 101.479 117.226C102.135 116.301 102.731 115.406 103.358 114.541C105.923 110.843 108.458 107.174 110.994 103.475C111.382 102.908 111.889 102.61 112.605 102.61C114.066 102.64 115.528 102.61 116.989 102.61C117.437 102.61 117.825 102.67 118.033 103.087C118.242 103.505 118.033 103.893 117.795 104.251C114.394 109.083 110.964 113.945 107.564 118.777C106.4 120.418 105.237 122.058 104.103 123.729C103.686 124.355 103.119 124.653 102.373 124.653C101.836 124.653 101.27 124.623 100.733 124.653C99.838 124.683 99.1817 124.325 98.6448 123.579C96.7656 120.895 94.8864 118.21 93.0072 115.556C92.9476 115.466 92.8581 115.377 92.7388 115.198C92.2913 115.824 91.8439 116.391 91.4561 116.987C89.8752 119.224 88.2943 121.491 86.7432 123.758C86.2958 124.385 85.729 124.653 85.0131 124.653C84.6552 124.653 84.3271 124.623 83.9691 124.653C82.6567 124.802 81.7917 124.236 81.0758 123.162C77.8245 118.479 74.5433 113.825 71.2622 109.172C70.1287 107.561 68.9952 105.951 67.8617 104.34C67.802 104.251 67.7424 104.161 67.6827 104.042C67.2055 103.236 67.5336 102.61 68.4583 102.61C69.3531 102.58 70.248 102.61 71.1428 102.61C71.7394 102.61 72.336 102.64 72.9326 102.61C73.7081 102.58 74.245 102.908 74.6626 103.505C77.0191 106.905 79.3755 110.306 81.732 113.736C82.4777 114.81 83.1936 115.884 83.9393 116.958C83.8797 117.047 83.9393 117.136 84.0288 117.286Z" fill="white"/>
<path d="M27.9222 117.554C28.3398 117.912 28.6977 118.27 29.1153 118.598C30.8156 120.03 32.5158 121.462 34.216 122.893C34.574 123.192 34.9916 123.49 34.8424 124.027C34.6635 124.594 34.0967 124.534 33.6195 124.534C32.1877 124.534 30.7857 124.534 29.354 124.564C28.6679 124.564 28.131 124.325 27.6239 123.878C25.4166 121.939 23.2093 120.03 21.0318 118.091C20.6738 117.763 20.2861 117.614 19.8088 117.614C16.8558 117.644 13.9028 117.614 10.9497 117.614C10.7111 117.614 10.5023 117.614 10.204 117.614C10.1742 117.912 10.1145 118.181 10.1145 118.449C10.1145 119.881 10.1145 121.342 10.1145 122.774C10.1145 123.043 10.1145 123.341 10.0549 123.58C9.93555 124.206 9.66709 124.474 9.04069 124.504C7.81771 124.534 6.56491 124.534 5.34194 124.504C4.71554 124.504 4.32777 124.116 4.26811 123.49C4.23828 123.311 4.23828 123.132 4.23828 122.953C4.23828 116.719 4.23828 110.485 4.23828 104.251C4.23828 104.012 4.23828 103.803 4.26811 103.565C4.38742 102.968 4.74537 102.64 5.34194 102.61C5.43142 102.61 5.52091 102.61 5.6104 102.61C12.5605 102.61 19.5105 102.58 26.4308 102.64C28.5486 102.67 30.5769 103.177 32.2772 104.519C36.6023 107.979 35.7075 114.392 30.6963 116.629C29.8014 117.017 28.8767 117.226 27.9222 117.554ZM10.0847 112.245C10.4426 112.245 10.6813 112.245 10.9497 112.245C15.6925 112.245 20.4352 112.245 25.178 112.245C25.9237 112.245 26.6992 112.155 27.4449 112.095C29.0855 112.006 29.4136 110.336 28.996 109.232C28.7872 108.725 28.4293 108.486 27.9222 108.397C27.3853 108.337 26.8185 108.248 26.2816 108.248C21.0914 108.218 15.8714 108.218 10.6813 108.218C10.5023 108.218 10.3233 108.277 10.1145 108.307C10.0847 109.59 10.0847 110.873 10.0847 112.245Z" fill="white"/>
<path d="M52.6191 125.013C50.6206 124.923 48.5922 124.923 46.5937 124.684C43.5214 124.326 40.628 123.491 38.3312 121.224C36.8398 119.763 36.0642 117.943 35.7063 115.915C35.408 114.185 35.4378 112.485 35.7659 110.784C36.2432 108.368 37.4363 106.399 39.4945 104.998C41.0456 103.924 42.7757 103.238 44.6549 102.82C46.892 102.313 49.1888 102.134 51.4856 102.194C53.7227 102.223 55.9897 102.223 58.197 102.432C60.9413 102.671 63.5364 103.446 65.8332 105.057C68.0405 106.608 69.2038 108.816 69.5916 111.441C69.8302 113.141 69.8004 114.811 69.4424 116.482C68.7265 119.912 66.6385 122.179 63.4767 123.491C61.0904 124.476 58.5848 124.834 56.0494 124.923C54.9159 124.953 53.7526 124.923 52.6191 124.923C52.6191 124.953 52.6191 124.983 52.6191 125.013ZM52.5893 119.494C52.5893 119.464 52.5893 119.405 52.5893 119.375C53.7228 119.375 54.8264 119.435 55.9599 119.345C57.0636 119.285 58.197 119.136 59.3007 118.898C61.508 118.42 63.417 117.197 63.7452 114.364C64.0434 111.828 63.0293 109.591 60.464 108.607C58.734 107.951 56.9144 107.742 55.0949 107.712C53.5438 107.682 51.9629 107.652 50.4118 107.712C49.0098 107.772 47.6079 107.891 46.2656 108.189C43.2529 108.845 41.2842 110.695 41.5527 114.215C41.6422 115.378 42.0299 116.452 42.8651 117.317C43.9688 118.45 45.4006 118.957 46.9218 119.106C48.801 119.315 50.7101 119.375 52.5893 119.494Z" fill="white"/>
<path d="M26.8758 136.585C26.8758 137.062 26.8758 137.48 26.8758 137.987C27.1145 138.017 27.3531 138.047 27.5917 138.047C29.1428 138.047 30.6939 138.047 32.2748 138.047C33.0205 138.047 33.1399 138.226 32.8714 139.12C30.9027 139.12 28.9042 139.12 26.8758 139.12C26.8758 139.657 26.8758 140.075 26.8758 140.582C27.1443 140.582 27.3531 140.582 27.5917 140.582C29.2621 140.582 30.9325 140.582 32.6029 140.582C32.7521 140.582 32.9311 140.582 33.0802 140.612C33.4083 140.642 33.5873 140.821 33.5873 141.149C33.5873 141.507 33.4083 141.686 33.0504 141.686C30.7834 141.686 28.5164 141.686 26.2494 141.686C25.802 141.686 25.6529 141.417 25.623 141.029C25.623 139.419 25.623 137.778 25.623 136.167C25.623 135.69 25.8617 135.481 26.3389 135.481C27.4426 135.481 28.5463 135.481 29.6499 135.481C30.6939 135.481 31.7081 135.481 32.7521 135.481C33.1399 135.481 33.5873 135.422 33.5873 135.988C33.5873 136.555 33.1697 136.555 32.7521 136.555C31.0817 136.555 29.4113 136.555 27.7409 136.555C27.4724 136.525 27.204 136.555 26.8758 136.585Z" fill="white"/>
<path d="M11.0364 139.717C11.6329 140.344 12.4085 140.702 12.7962 141.507C12.1102 141.775 11.6031 141.775 11.2153 141.298C10.1117 139.956 8.70973 139.508 7.0095 139.747C6.50241 139.807 5.9655 139.747 5.33909 139.747C5.33909 140.224 5.33909 140.612 5.33909 141C5.33909 141.388 5.18995 141.656 4.74252 141.656C4.32492 141.656 4.17578 141.388 4.17578 141.03C4.17578 139.389 4.17578 137.719 4.17578 136.078C4.17578 135.631 4.38458 135.422 4.83201 135.422C6.74104 135.422 8.62024 135.422 10.5293 135.422C11.6329 135.422 12.4383 136.197 12.6173 137.241C12.7664 138.285 12.2295 139.15 11.2153 139.568C11.2153 139.628 11.1557 139.658 11.0364 139.717ZM5.42858 138.733C7.15864 138.733 8.82904 138.763 10.4994 138.703C10.9469 138.703 11.3645 138.435 11.4838 137.898C11.6329 137.092 11.275 136.555 10.3801 136.526C8.85887 136.496 7.30778 136.526 5.78652 136.526C5.66721 136.526 5.57772 136.585 5.42858 136.615C5.42858 137.301 5.42858 137.957 5.42858 138.733Z" fill="white"/>
<path d="M46.3262 141.594C46.3858 141.355 46.3858 141.117 46.5051 140.938C47.7579 139.208 49.0107 137.478 50.2635 135.777C50.6513 135.27 51.576 135.24 51.9638 135.748C53.2464 137.478 54.529 139.208 55.7818 140.938C55.9012 141.087 55.8713 141.326 55.931 141.534C55.2449 141.803 54.7975 141.594 54.529 141.087C54.1711 140.431 53.664 140.252 52.9481 140.282C51.6953 140.341 50.4425 140.341 49.1599 140.282C48.5335 140.252 48.1457 140.431 47.8176 140.968C47.3702 141.743 47.3105 141.713 46.3262 141.594ZM51.1584 136.493C50.4425 137.448 49.8161 138.313 49.1599 139.238C50.5618 139.238 51.8146 139.238 53.1569 139.238C52.4709 138.313 51.8445 137.448 51.1584 136.493Z" fill="white"/>
<path d="M93.5707 136.526C93.5707 137.57 93.5707 138.495 93.5707 139.389C93.5707 139.897 93.5707 140.404 93.5707 140.911C93.5707 141.299 93.5707 141.686 93.0338 141.686C92.5864 141.686 92.4372 141.507 92.4372 140.881C92.4372 139.807 92.4372 138.733 92.4372 137.659C92.4372 137.331 92.4372 136.973 92.4372 136.526C91.6318 136.526 90.9458 136.526 90.2299 136.526C89.8421 136.526 89.4543 136.526 89.0666 136.496C88.7086 136.466 88.6191 136.228 88.6191 135.929C88.6191 135.631 88.7683 135.452 89.0666 135.452C89.2157 135.452 89.335 135.452 89.4842 135.452C91.8406 135.452 94.1971 135.452 96.5536 135.452C96.7027 135.452 96.9115 135.392 97.0308 135.482C97.2098 135.601 97.4484 135.81 97.4484 135.989C97.4484 136.168 97.2098 136.436 97.0308 136.496C96.7624 136.586 96.4342 136.526 96.136 136.556C95.3306 136.526 94.4954 136.526 93.5707 136.526Z" fill="white"/>
<path d="M69.9797 140.582C70.278 140.582 70.457 140.582 70.636 140.582C72.3064 140.582 73.9768 140.582 75.6472 140.582C75.7963 140.582 75.9753 140.582 76.1244 140.612C76.4824 140.641 76.6912 140.791 76.6912 141.178C76.6912 141.536 76.4824 141.715 76.1244 141.715C76.0349 141.715 75.9454 141.715 75.856 141.715C73.7978 141.715 71.7396 141.715 69.6814 141.715C68.9357 141.715 68.8164 141.626 68.8164 140.91C68.8164 139.359 68.8164 137.808 68.8164 136.257C68.8164 135.928 68.8164 135.6 69.234 135.511C69.7113 135.421 69.9499 135.6 69.9797 136.227C70.0095 137.39 69.9797 138.553 70.0096 139.717C69.9797 139.925 69.9797 140.194 69.9797 140.582Z" fill="white"/>
<path d="M110.187 135.54C110.723 135.361 111.201 135.391 111.618 135.809C112.334 136.495 113.08 137.121 113.826 137.778C114.005 137.927 114.184 138.076 114.392 138.255C114.899 137.807 115.377 137.39 115.854 136.972C116.272 136.584 116.719 136.226 117.137 135.809C117.584 135.361 118.091 135.421 118.837 135.57C118.628 135.868 118.509 136.107 118.33 136.256C117.375 137.121 116.451 137.986 115.466 138.822C115.108 139.15 114.929 139.478 114.989 139.955C115.019 140.343 114.989 140.731 114.989 141.118C114.989 141.476 114.81 141.655 114.452 141.685C114.064 141.685 113.885 141.506 113.885 141.148C113.855 140.731 113.855 140.313 113.885 139.925C113.915 139.508 113.766 139.179 113.438 138.911C112.483 138.046 111.529 137.181 110.574 136.316C110.336 136.107 110.037 135.928 110.187 135.54Z" fill="white"/>
</svg>
